<?xml version="1.0" standalone="no"?>
<!DOCTYPE svg PUBLIC "-//W3C//DTD SVG 20010904//EN"
 "http://www.w3.org/TR/2001/REC-SVG-20010904/DTD/svg10.dtd">
<svg version="1.0" xmlns="http://www.w3.org/2000/svg"
 width="300.000000pt" height="300.000000pt" viewBox="0 0 300.000000 325.000000"
 preserveAspectRatio="xMidYMid meet">
<metadata>
Created by potrace 1.10, written by Peter Selinger 2001-2011
</metadata>
<g transform="translate(0.000000,325.000000) scale(0.100000,-0.100000)"
fill="#000000" stroke="none">
<path d="M310 1610 l0 -1110 1140 0 1140 0 0 1110 0 1110 -1140 0 -1140 0 0
-1110z m935 1004 c-83 -47 -171 -98 -197 -112 -26 -15 -48 -29 -48 -32 0 -8
655 -368 660 -363 9 9 -64 63 -84 63 -11 0 -17 3 -13 6 3 3 -27 23 -66 43
-122 64 -172 93 -183 107 -7 9 -19 12 -30 8 -11 -4 -16 -4 -12 1 4 4 -7 15
-25 25 -18 9 -55 29 -84 45 -50 26 -91 61 -82 69 2 2 56 36 119 75 63 38 120
74 125 78 6 5 18 7 29 5 11 -2 16 0 12 6 -19 30 68 32 96 3 10 -12 28 -21 38
-21 11 0 20 -5 20 -11 0 -6 9 -9 19 -6 15 4 18 1 14 -12 -4 -9 -3 -13 2 -9 4
4 70 -24 146 -63 76 -39 143 -68 148 -64 7 3 8 0 5 -9 -4 -11 0 -16 10 -16 18
0 122 -51 196 -96 32 -20 41 -23 30 -9 -14 17 -14 18 7 6 34 -18 45 -44 27
-69 -9 -13 -11 -23 -4 -27 5 -3 10 -33 10 -66 l0 -59 -55 -35 c-30 -20 -66
-40 -80 -45 -16 -6 -23 -14 -19 -22 5 -8 0 -9 -14 -6 -12 4 -22 2 -22 -3 0 -5
-7 -12 -17 -16 -9 -3 -41 -21 -71 -39 -30 -19 -58 -31 -62 -29 -4 2 -29 -15
-56 -40 -49 -44 -49 -44 -69 -24 -20 20 -20 19 -30 -23 -6 -24 -15 -41 -19
-40 -5 2 -13 -2 -18 -10 -5 -8 -7 54 -6 152 l3 164 -105 59 c-58 32 -172 96
-255 141 -138 76 -188 104 -285 159 -19 11 -87 49 -150 84 -126 71 -126 71
-118 78 4 5 87 -38 232 -120 26 -15 46 -22 42 -17 -6 10 -221 132 -232 132 -3
0 -12 7 -20 15 -12 11 -19 12 -33 3 -19 -11 -21 -41 -36 -423 0 -9 321 -193
784 -451 196 -108 204 -109 209 -28 l3 49 252 147 c139 81 260 150 270 154 16
6 17 19 15 127 l-3 120 -372 188 -372 189 574 0 575 0 0 -667 0 -667 -22 -23
c-12 -13 -16 -23 -10 -23 7 0 12 -18 13 -47 1 -39 2 -43 9 -23 l8 25 1 -27 c1
-16 -4 -28 -10 -28 -6 0 -8 -7 -5 -16 3 -9 -3 -27 -13 -41 -11 -13 -17 -31
-14 -39 3 -10 -6 -27 -26 -44 l-31 -29 -44 45 c-30 30 -43 51 -40 62 5 14 4
14 -4 2 -19 -31 -2 -88 37 -122 27 -24 36 -40 36 -62 0 -21 5 -31 15 -31 11 0
15 10 14 35 -1 29 6 40 37 65 27 21 38 38 39 58 0 15 4 27 9 27 4 0 7 -13 6
-30 -1 -16 -2 -151 -3 -300 l-2 -270 -370 0 -370 0 0 29 c0 25 14 42 69 81 4
3 13 27 21 53 7 27 20 52 29 55 44 18 111 66 111 78 0 19 -7 18 -43 -8 -17
-12 -27 -16 -22 -9 6 11 2 13 -17 8 -24 -6 -24 -6 -25 77 -1 88 -11 119 -59
175 -18 22 -32 30 -45 26 -11 -4 -19 -2 -19 4 0 6 5 11 12 11 6 0 9 2 6 5 -3
3 -18 -1 -34 -10 -16 -8 -34 -15 -41 -15 -6 0 -28 -24 -49 -52 -21 -29 -42
-56 -47 -59 -12 -9 10 -22 23 -14 19 12 -4 -29 -29 -52 -14 -12 -20 -23 -13
-23 8 0 10 -8 7 -23 -3 -12 0 -38 8 -57 8 -19 17 -63 21 -97 l7 -62 -40 -26
c-22 -14 -45 -25 -50 -25 -6 0 -8 -7 -5 -15 5 -11 2 -13 -10 -9 -9 3 -16 11
-17 18 0 6 -6 -1 -13 -16 l-12 -27 -32 30 c-26 24 -32 38 -30 64 1 18 -4 40
-11 49 -12 14 -12 16 0 11 10 -4 15 1 15 15 0 14 -5 19 -14 15 -12 -4 -12 -2
0 17 9 14 12 31 8 43 -4 11 -6 23 -4 27 2 3 4 66 5 138 0 109 -3 135 -16 150
-9 10 -14 24 -10 30 6 9 2 9 -14 1 -17 -10 -25 -9 -39 5 -9 10 -40 28 -69 41
-29 14 -53 29 -53 34 0 13 44 1 103 -26 62 -29 40 -2 -25 31 -27 14 -46 29
-43 35 4 5 10 7 14 5 8 -5 119 158 147 216 10 21 28 39 47 47 18 7 27 15 20
18 -7 2 -21 0 -31 -6 -25 -14 -43 6 -31 34 19 47 -2 42 -27 -7 -14 -27 -14
-31 0 -41 14 -10 7 -25 -50 -112 -36 -54 -72 -112 -80 -127 -8 -15 -18 -28
-22 -28 -5 0 -34 14 -66 31 -57 31 -57 31 -38 53 28 31 134 197 129 202 -2 2
-22 -6 -45 -18 -41 -22 -43 -23 -73 -5 -18 10 -32 16 -33 15 -1 -2 -22 -34
-45 -71 -45 -70 -48 -104 -5 -54 15 17 29 25 37 21 8 -5 8 -2 -2 9 -12 15 -10
19 10 37 23 19 89 28 89 12 0 -4 -11 -24 -25 -43 -13 -20 -21 -40 -17 -44 4
-5 0 -6 -10 -2 -12 4 -15 0 -14 -17 2 -13 -3 -31 -10 -40 -12 -17 -20 -14
-111 35 -54 29 -120 65 -147 81 -40 24 -51 27 -65 16 -14 -12 -14 -11 -3 4 12
15 10 19 -20 32 -18 8 -62 31 -98 51 -36 20 -78 44 -95 53 -16 9 -38 23 -47
31 -17 13 -18 8 -19 -80 -1 -52 -2 -121 -3 -154 -1 -33 3 -63 8 -67 7 -5 6
-11 -4 -18 -10 -6 -11 -10 -2 -10 6 0 12 -7 12 -15 0 -8 -9 -15 -20 -15 -15 0
-19 6 -16 28 2 15 1 20 -1 12 -3 -8 -14 -23 -25 -34 -11 -10 -17 -25 -14 -33
5 -13 -12 -49 -24 -51 -3 0 -13 -4 -22 -7 -22 -9 -68 22 -68 45 0 10 -4 20
-10 22 -5 2 -11 16 -12 31 -2 26 -27 61 -29 41 -4 -48 -4 -66 3 -70 4 -3 8
-17 8 -32 0 -20 12 -38 40 -62 31 -27 40 -42 40 -67 0 -23 5 -33 15 -33 11 0
15 11 15 38 1 30 7 41 34 62 20 15 37 38 42 58 5 18 13 32 18 30 7 -2 9 -117
3 -182 -2 -16 52 -50 273 -173 151 -85 282 -158 290 -162 13 -8 16 22 18 242
2 139 5 253 6 254 1 2 36 -16 77 -40 41 -23 110 -60 152 -82 l78 -40 -6 -215
c-3 -118 -8 -231 -11 -251 -5 -36 -5 -37 51 -64 31 -14 55 -27 53 -28 -1 -1
-276 -1 -609 1 l-607 3 -4 427 c-2 235 -3 429 -1 431 2 3 10 -4 17 -15 20 -27
27 -14 16 26 -8 28 -6 38 9 54 19 22 35 82 23 89 -4 2 -1 2 6 1 7 -2 20 5 29
16 12 13 21 16 29 9 6 -5 19 -6 29 -3 17 7 17 8 0 21 -10 7 -16 15 -14 18 3 3
14 -2 25 -9 18 -14 18 -15 1 -33 -21 -24 -22 -34 -2 -27 9 4 15 0 15 -8 0 -7
9 -21 20 -31 19 -16 20 -16 20 3 0 10 -6 23 -13 27 -17 10 -30 43 -17 43 6 0
10 -4 10 -10 0 -5 5 -10 12 -10 6 0 4 7 -5 18 -10 10 -17 26 -17 35 0 9 -6 17
-14 17 -8 0 -22 7 -31 16 -15 15 -18 15 -39 -5 -12 -11 -28 -21 -34 -21 -7 0
-12 -6 -12 -14 0 -7 -7 -19 -15 -26 -9 -8 -13 -21 -9 -36 4 -15 0 -34 -10 -49
-9 -13 -16 -32 -16 -42 0 -9 -3 -13 -7 -8 -5 6 -7 292 -5 638 l3 627 527 0
527 0 -150 -86z m-530 -68 c11 -7 74 -43 140 -78 66 -36 176 -97 245 -135 69
-38 205 -114 304 -168 l178 -98 -6 -111 c-4 -61 -9 -141 -12 -177 l-6 -66
-112 63 c-61 34 -255 144 -431 243 -176 99 -326 184 -333 188 -10 6 -11 45 -6
181 4 94 10 172 13 172 4 0 15 -6 26 -14z m100 -1078 c61 -35 134 -77 163 -93
l53 -29 -7 -230 c-4 -127 -7 -232 -8 -233 -2 -2 -72 36 -157 83 -85 48 -171
95 -191 106 l-38 20 0 72 c0 40 3 148 7 239 l6 167 31 -19 c17 -10 81 -47 141
-83z m309 -133 c15 -8 32 -12 37 -9 13 8 11 -10 -3 -25 -11 -11 -10 -12 0 -7
7 4 19 2 27 -4 19 -15 20 -31 2 -24 -7 2 -21 -4 -30 -14 -23 -26 -35 -186 -15
-210 11 -13 11 -15 -2 -10 -13 5 -15 -9 -15 -87 0 -51 3 -91 8 -88 18 11 4
-16 -20 -38 -20 -18 -25 -20 -20 -6 5 12 1 17 -11 17 -10 0 -27 6 -37 14 -16
11 -17 17 -7 42 7 16 13 65 14 109 1 44 6 85 10 91 5 7 2 17 -7 24 -16 13 -21
35 -6 26 5 -3 11 12 13 33 2 30 0 37 -11 33 -11 -4 -11 -1 0 19 7 13 11 48 10
77 -3 58 8 65 63 37z m711 -256 c4 -5 18 -14 31 -19 13 -5 24 -16 24 -24 0 -7
7 -19 15 -26 9 -7 14 -19 11 -27 -3 -7 -1 -13 4 -13 6 0 10 -13 10 -29 0 -17
5 -33 10 -36 6 -3 7 -17 4 -31 -4 -14 -8 -39 -9 -57 -2 -18 -3 -39 -4 -47 -1
-12 -3 -12 -10 -2 -6 10 -10 7 -15 -12 -4 -15 -10 -24 -15 -22 -5 3 -11 -4
-14 -15 -4 -15 -2 -19 9 -15 13 5 13 3 2 -12 -21 -30 -89 -86 -82 -68 7 19
-35 40 -51 25 -28 -27 -47 15 -50 107 0 23 -7 53 -14 67 -12 23 -12 31 4 63 9
20 20 54 23 76 3 29 16 50 50 83 47 47 57 52 67 34z m-61 -474 c16 -15 26 -35
26 -52 l0 -28 -115 -1 c-64 -1 -113 1 -110 4 3 3 149 90 171 101 1 1 13 -10
28 -24z"/>
<path d="M1983 2212 c-80 -47 -128 -81 -123 -86 6 -6 16 -3 27 6 32 28 125 79
137 75 6 -3 33 15 61 39 27 24 45 44 40 43 -6 0 -69 -35 -142 -77z"/>
<path d="M570 2107 c0 -46 5 -88 11 -94 7 -7 -13 -47 -72 -137 -45 -70 -80
-128 -78 -130 16 -12 90 -49 93 -45 2 2 39 58 81 124 43 66 80 122 81 124 7 8
114 -55 114 -67 0 -7 5 -10 10 -7 22 14 7 36 -42 65 -54 31 -98 39 -98 18 0
-6 -3 -9 -6 -5 -4 3 -37 -41 -75 -98 -50 -75 -75 -105 -89 -105 -11 0 -20 6
-20 13 0 6 27 55 60 106 33 52 60 101 60 109 0 7 5 10 10 7 11 -7 14 8 3 19
-4 4 -9 24 -10 45 -2 28 3 43 18 57 23 21 13 25 188 -73 51 -29 98 -53 103
-53 6 0 8 -7 5 -14 -4 -10 -1 -13 8 -10 8 3 61 -21 118 -53 56 -33 117 -66
135 -74 18 -8 30 -19 28 -26 -3 -7 1 -10 10 -6 17 6 56 -25 48 -38 -3 -5 8 -9
23 -9 52 0 70 -44 36 -83 -17 -19 -17 -20 5 -8 12 6 22 20 22 30 0 30 11 31
61 5 51 -25 62 -43 31 -51 -18 -4 -45 -76 -34 -88 11 -11 32 19 32 47 0 29 30
53 38 30 2 -8 8 -8 22 0 27 17 35 4 23 -37 -11 -35 -4 -46 15 -22 6 6 13 24
17 38 7 27 -2 32 -279 182 -38 20 -104 57 -145 81 -125 71 -321 181 -406 226
-44 24 -94 54 -112 67 -17 12 -34 23 -37 23 -3 0 -6 -37 -6 -83z"/>
<path d="M2220 2156 c0 -3 15 -13 33 -22 17 -9 42 -26 55 -37 12 -11 22 -16
22 -10 0 15 -45 53 -68 58 -12 2 -27 7 -32 10 -6 3 -10 4 -10 1z"/>
<path d="M1737 2073 l-98 -55 3 -66 c2 -36 8 -67 13 -69 6 -2 9 18 7 52 -4 50
-1 58 26 83 16 15 59 43 96 61 36 19 63 38 60 42 -3 5 -6 9 -7 8 -1 -1 -46
-26 -100 -56z"/>
<path d="M2370 2067 c-8 -8 -109 -67 -225 -132 -115 -65 -243 -138 -283 -161
-40 -24 -74 -44 -76 -44 -3 0 -36 -18 -75 -41 -59 -34 -71 -45 -71 -67 l0 -25
24 22 c15 14 33 21 48 19 20 -3 23 -8 21 -38 -2 -30 -1 -32 9 -16 8 15 8 28
-2 53 -6 19 -10 35 -8 37 30 18 60 27 74 22 14 -5 15 -4 4 9 -7 8 -8 15 -3 15
6 0 70 34 143 75 73 41 136 72 141 69 5 -3 6 3 2 12 -4 12 -3 15 6 10 7 -5 20
-1 29 7 9 8 40 26 67 41 28 14 65 38 83 52 27 22 31 24 26 8 -7 -19 -7 -19 14
0 35 30 55 14 47 -37 -9 -52 -12 -56 -108 -111 -72 -41 -77 -45 -58 -56 13 -6
21 -7 21 -1 0 6 20 22 45 37 48 28 80 26 71 -3 -9 -30 -9 -157 -1 -178 7 -17
6 -18 -6 -8 -12 9 -14 6 -14 -22 0 -26 3 -31 13 -23 17 14 15 -3 -3 -28 -8
-12 -12 -24 -8 -27 10 -11 13 -216 3 -243 -7 -17 -6 -32 2 -47 11 -21 10 -21
-8 -7 -13 10 -11 5 6 -17 14 -18 29 -32 33 -32 9 -1 2 32 -15 66 -8 17 -8 26
2 38 15 19 28 212 29 459 1 129 4 163 16 172 11 8 15 31 15 83 0 72 -5 81 -30
58z"/>
<path d="M723 1768 c-72 -111 -83 -133 -62 -126 8 2 38 39 66 83 29 43 59 82
65 87 7 4 9 8 4 8 -5 0 1 11 14 24 l22 25 -22 -2 c-17 -1 -39 -27 -87 -99z"/>
<path d="M882 1821 c-36 -39 -52 -59 -52 -66 0 -3 -17 -32 -38 -63 -42 -62
-66 -126 -38 -103 8 7 45 60 82 119 37 59 70 110 74 115 7 8 123 -52 118 -62
-2 -3 -39 -59 -82 -124 -44 -64 -76 -120 -73 -124 10 -9 51 32 73 73 14 25 24
34 37 30 15 -3 16 -2 7 9 -9 11 -7 21 9 44 38 53 54 101 40 118 -14 16 -102
63 -119 63 -7 0 -24 -13 -38 -29z"/>
<path d="M2080 1743 c-41 -24 -83 -52 -93 -61 -11 -9 -24 -17 -30 -17 -7 0
-56 -26 -109 -57 -53 -32 -102 -58 -109 -58 -6 0 -9 -7 -5 -15 7 -18 -15 -20
-33 -2 -10 10 -12 9 -9 -1 2 -7 -22 -28 -52 -46 l-55 -32 0 -76 c0 -55 3 -74
11 -67 7 6 10 27 7 53 -7 60 9 83 79 116 33 16 67 35 76 43 9 8 36 24 60 36
24 12 57 35 74 52 32 30 48 36 48 19 0 -5 -5 -10 -12 -10 -6 0 -9 -3 -5 -6 3
-3 27 12 54 33 52 43 184 123 203 123 6 0 8 5 5 10 -10 16 -26 11 -105 -37z"/>
<path d="M1085 1678 c-39 -39 -61 -65 -51 -57 18 13 19 12 13 -4 -4 -10 -7
-23 -7 -28 0 -6 -4 -7 -10 -4 -5 3 -10 1 -10 -5 0 -6 -12 -28 -26 -50 -14 -21
-24 -47 -22 -57 2 -12 31 23 87 109 80 124 84 127 104 113 31 -21 39 -19 64
21 20 31 21 33 3 24 -10 -6 -21 -14 -24 -18 -3 -5 -19 -7 -36 -4 -25 3 -28 7
-19 18 30 36 -3 7 -66 -58z"/>
<path d="M1245 1698 l-27 -32 22 -16 21 -16 -26 -24 c-32 -30 -32 -47 0 -62
31 -14 85 6 85 31 0 25 42 61 71 62 13 0 18 3 11 6 -27 11 -63 -9 -87 -47 -16
-26 -33 -40 -46 -40 -18 0 -20 4 -13 28 4 15 8 47 8 71 1 26 6 46 14 48 6 3
12 -3 12 -12 0 -9 5 -13 10 -10 6 3 10 15 10 26 0 30 -35 23 -65 -13z"/>
<path d="M1362 1608 c-7 -7 -12 -21 -11 -32 0 -12 3 -15 6 -8 2 6 11 12 19 12
8 0 14 9 14 20 0 23 -10 26 -28 8z"/>
<path d="M1580 1589 c0 -17 4 -28 10 -24 6 3 10 17 10 31 0 13 -4 24 -10 24
-5 0 -10 -14 -10 -31z"/>
<path d="M1682 1608 c-14 -14 -16 -48 -2 -48 10 0 30 32 30 49 0 14 -13 14
-28 -1z"/>
<path d="M1602 1557 c-23 -24 -19 -45 5 -26 7 6 21 9 31 7 17 -5 17 -2 8 18
-14 30 -17 30 -44 1z"/>
<path d="M2438 1485 c-17 -14 -28 -34 -28 -50 0 -29 5 -31 26 -10 9 8 23 15
33 15 21 0 51 -31 55 -57 3 -19 36 -32 36 -13 0 6 -9 20 -20 32 -11 12 -17 24
-14 27 3 3 9 -1 14 -9 5 -8 12 -11 17 -6 4 4 0 12 -9 17 -10 5 -15 16 -12 24
4 9 -3 18 -19 24 -14 5 -28 15 -32 20 -9 16 -17 13 -47 -14z"/>
<path d="M1496 1320 c-37 -55 -66 -104 -64 -110 2 -6 26 25 54 67 51 76 88
143 81 143 -2 0 -34 -45 -71 -100z"/>
<path d="M1587 1283 c-11 -10 -8 -231 2 -238 6 -3 11 45 13 120 3 118 1 134
-15 118z"/>
<path d="M2092 1206 c-52 -48 -86 -156 -49 -156 7 0 13 18 15 41 3 46 10 57
85 127 17 16 19 16 31 0 7 -10 21 -18 30 -18 9 0 21 -10 27 -22 5 -13 16 -34
24 -48 8 -14 15 -36 15 -50 0 -15 5 -31 11 -37 7 -7 8 -19 4 -30 -5 -10 -7
-22 -6 -26 1 -7 -14 -45 -41 -104 -6 -11 -7 -26 -4 -32 4 -7 1 -9 -8 -5 -11 4
-13 0 -9 -14 3 -14 -4 -26 -26 -41 l-31 -22 -31 21 c-17 13 -28 28 -25 36 9
24 -10 15 -23 -10 -12 -21 -10 -27 15 -55 15 -17 34 -31 41 -31 10 0 14 -9 12
-28 -4 -31 8 -55 22 -47 5 4 9 21 9 40 0 25 8 40 35 64 19 17 35 36 35 44 0 7
6 21 13 31 7 10 12 36 11 57 -2 36 2 43 36 65 l39 26 3 83 c4 101 3 107 -23
123 -18 12 -19 11 -11 -5 5 -10 7 -24 4 -32 -3 -8 0 -11 7 -7 22 14 10 -11
-19 -39 -27 -26 -45 -24 -19 2 14 14 -44 99 -81 118 -45 23 -76 18 -118 -19z"/>
<path d="M2014 993 c3 -32 8 -74 12 -94 4 -25 1 -39 -10 -48 -9 -8 -16 -19
-16 -25 1 -6 14 4 30 23 20 24 26 38 20 46 -5 7 -7 14 -4 18 3 3 -2 22 -12 42
-13 27 -14 39 -5 48 16 16 14 34 -5 41 -14 6 -16 -1 -10 -51z"/>
<path d="M1577 943 c-6 -82 -4 -103 8 -91 8 8 12 169 4 173 -3 3 -9 -35 -12
-82z"/>
<path d="M1390 960 c-24 -6 -24 -6 -3 -12 14 -4 23 -15 25 -34 3 -26 4 -25 9
9 6 43 4 46 -31 37z"/>
<path d="M2165 960 c-8 -12 20 -24 35 -15 6 3 8 11 5 16 -8 12 -32 12 -40 -1z"/>
<path d="M1420 836 c0 -25 5 -46 10 -46 6 0 10 18 10 39 0 22 -4 43 -10 46 -6
4 -10 -12 -10 -39z"/>
<path d="M1182 814 l-2 -50 88 -49 c48 -26 102 -57 120 -68 l33 -19 -3 68 c-2
45 -7 69 -16 72 -11 3 -12 0 -3 -16 7 -14 8 -29 1 -46 -8 -23 -12 -25 -37 -15
-15 6 -60 29 -100 51 -69 40 -72 43 -76 82 -3 39 -4 38 -5 -10z"/>
<path d="M1587 832 c-14 -15 -17 -40 -17 -120 0 -56 3 -102 8 -102 4 0 7 47 8
105 1 68 6 110 14 120 18 21 6 19 -13 -3z"/>
<path d="M820 2435 c-15 -19 -18 -16 49 -50 56 -28 56 -35 6 -53 -76 -27 -148
-61 -156 -73 -14 -22 -11 -36 9 -42 9 -3 45 -21 79 -41 60 -34 63 -35 73 -16
9 17 4 23 -51 51 l-62 31 84 34 c46 20 91 38 99 40 15 5 45 43 38 48 -2 2 -37
22 -79 44 -67 37 -78 40 -89 27z"/>
<path d="M1059 2293 c-8 -10 -50 -49 -92 -87 -42 -37 -77 -72 -77 -76 0 -5 9
-12 21 -15 14 -5 27 0 41 15 11 11 23 20 26 18 85 -43 84 -41 77 -75 -5 -26
-2 -34 16 -43 11 -7 22 -10 23 -8 2 2 12 59 23 128 l21 125 -21 17 c-28 22
-39 22 -58 1z m27 -60 c-3 -10 -8 -35 -11 -55 l-7 -37 -27 16 c-14 10 -28 18
-30 20 -6 5 61 73 72 73 4 0 6 -8 3 -17z"/>
<path d="M1190 2117 c-30 -56 -56 -107 -58 -114 -4 -13 41 -30 45 -17 2 5 28
54 58 109 51 92 54 101 38 112 -9 7 -19 13 -22 13 -3 0 -31 -46 -61 -103z"/>
<path d="M1293 2058 c-32 -57 -58 -107 -58 -112 0 -16 110 -66 146 -66 88 0
154 126 103 198 -12 18 -67 52 -126 80 -3 2 -33 -43 -65 -100z m131 19 c45
-37 32 -114 -26 -146 -25 -14 -30 -14 -66 4 l-39 20 39 73 c22 39 45 72 51 72
7 0 25 -10 41 -23z"/>
<path d="M672 1407 c1 -85 3 -94 5 -37 2 41 5 85 8 97 l5 22 51 -29 c27 -17
54 -30 59 -30 14 0 12 -13 -2 -29 -11 -11 -9 -12 9 -2 18 9 32 4 96 -34 70
-42 75 -48 81 -87 4 -26 3 -44 -4 -48 -6 -4 -8 -15 -4 -26 6 -16 3 -15 -19 5
-15 14 -27 21 -27 17 0 -4 9 -15 20 -24 25 -21 34 -61 17 -80 -7 -10 -8 -17
-2 -19 11 -3 7 -104 -5 -116 -9 -10 -80 21 -80 35 0 5 -5 6 -10 3 -6 -3 -23 2
-38 12 -49 33 -67 43 -89 53 -40 17 -63 48 -63 85 0 23 6 38 16 42 13 5 13 7
2 14 -31 20 -38 10 -38 -55 l0 -64 138 -77 c75 -43 148 -84 160 -92 13 -8 25
-13 27 -11 1 2 6 91 10 199 l7 196 -104 58 c-56 33 -131 76 -165 97 l-63 38 2
-113z"/>
</g>
</svg>
